<svg width="38" height="32" viewBox="0 0 38 32" fill="none" xmlns="http://www.w3.org/2000/svg">
<path d="M33.9567 4.41619L21.036 28.4162C20.9279 28.6172 20.7446 28.7821 20.5147 28.885C20.2849 28.9879 20.0214 29.023 19.7656 28.9849C19.5098 28.9468 19.276 28.8376 19.1008 28.6744C18.9257 28.5111 18.819 28.303 18.7975 28.0827L17.7051 16.926L4.6004 15.996C4.34158 15.9777 4.09718 15.8869 3.90543 15.7377C3.71368 15.5886 3.58539 15.3896 3.54062 15.1718C3.49586 14.954 3.53714 14.7297 3.65801 14.534C3.77888 14.3383 3.97253 14.1822 4.20867 14.0902L32.3992 3.09019C32.6171 3.00516 32.8604 2.97894 33.0963 3.01504C33.3322 3.05114 33.5496 3.14785 33.7191 3.29216C33.8886 3.43648 34.0022 3.62149 34.0446 3.82237C34.087 4.02324 34.0562 4.23035 33.9563 4.41589L33.9567 4.41619Z" fill="#FA7436"/>
</svg>
