<svg width="28" height="28" viewBox="0 0 28 28" fill="none" xmlns="http://www.w3.org/2000/svg">
<path fill-rule="evenodd" clip-rule="evenodd" d="M14.0003 27.3337C21.3641 27.3337 27.3337 21.3641 27.3337 14.0003C27.3337 6.63653 21.3641 0.666992 14.0003 0.666992C6.63653 0.666992 0.666992 6.63653 0.666992 14.0003C0.666992 21.3641 6.63653 27.3337 14.0003 27.3337Z" fill="white"/>
<path d="M18.8782 10.7734C18.4912 10.9432 18.0788 11.0557 17.6489 11.1103C18.0912 10.8463 18.4288 10.4313 18.5875 9.93116C18.1751 10.177 17.7198 10.3507 17.2346 10.4476C16.8431 10.0307 16.285 9.77246 15.6762 9.77246C14.4951 9.77246 13.5442 10.7312 13.5442 11.9064C13.5442 12.0756 13.5585 12.2382 13.5936 12.3929C11.82 12.3064 10.2505 11.4564 9.19623 10.1614C9.01217 10.4808 8.9042 10.8463 8.9042 11.2398C8.9042 11.9786 9.28469 12.6336 9.85184 13.0128C9.50908 13.0063 9.17282 12.9068 8.88794 12.75C8.88794 12.7565 8.88794 12.765 8.88794 12.7734C8.88794 13.8102 9.62745 14.6713 10.5972 14.8697C10.4235 14.9172 10.2343 14.9399 10.0379 14.9399C9.90127 14.9399 9.76339 14.9321 9.63396 14.9035C9.91038 15.7484 10.6948 16.3695 11.6275 16.3897C10.9016 16.9575 9.97997 17.2996 8.98225 17.2996C8.80729 17.2996 8.63948 17.2918 8.47168 17.2703C9.41672 17.8798 10.5367 18.2277 11.7445 18.2277C15.6704 18.2277 17.8167 14.9757 17.8167 12.1569C17.8167 12.0625 17.8135 11.9715 17.8089 11.8811C18.2323 11.5806 18.5881 11.2053 18.8782 10.7734Z" fill="#444444"/>
</svg>
