<svg width="32" height="32" viewBox="0 0 32 32" fill="none" xmlns="http://www.w3.org/2000/svg">
<path d="M1.18139 0.108465C1.00435 0.17351 0.755182 0.349131 0.558473 0.544266C-0.0513255 1.14918 0.00113027 -0.0801659 0.00113027 13.4297C0.00113027 26.946 -0.0447685 25.7817 0.545359 26.3671C1.14204 26.959 0.538802 26.9135 9.20712 26.972L16.8132 27.0241L17.2263 28.6112C17.4492 29.4828 17.705 30.3283 17.7836 30.491C17.9935 30.9007 18.4131 31.343 18.8262 31.5902C19.495 31.987 19.6393 32 23.0161 32C26.2684 32 26.4716 31.9805 27.0945 31.6683C27.4486 31.4861 27.9732 30.9983 28.1765 30.6471C28.524 30.0617 28.5895 29.6909 28.5895 28.2924V27.0045L29.4944 26.9655C30.6747 26.907 31.0156 26.8029 31.4549 26.3671C32.0451 25.7817 31.9992 26.9395 31.9992 13.4622C31.9992 -0.0151215 32.0451 1.14268 31.4549 0.55077C30.8386 -0.0606537 32.4057 -0.00211334 15.9739 0.00439262C2.94521 0.00439262 1.44366 0.0174026 1.18139 0.108465ZM30.7271 0.947544C30.8255 1.01909 30.9697 1.16219 31.0418 1.25976C31.173 1.42888 31.1795 1.53295 31.1992 3.58187L31.2189 5.72184H16.0001H0.787967V3.67943C0.787967 1.55897 0.807638 1.39635 1.06992 1.11016C1.39121 0.765419 0.506017 0.784933 16.0788 0.797941L30.5501 0.810949L30.7271 0.947544ZM31.2123 15.8949C31.2123 22.3799 31.1927 25.3459 31.1402 25.476C31.0418 25.7297 30.7665 26.0029 30.5304 26.0744C30.4189 26.1069 29.9337 26.159 29.4616 26.1785L28.5895 26.224V25.3589C28.5895 24.3377 28.5109 24.097 28.065 23.7263C27.6912 23.4076 27.2913 23.3165 26.7929 23.4466L26.4323 23.5442L26.1176 23.2319C25.7241 22.8417 25.3176 22.7051 24.8586 22.8091C24.6947 22.8417 24.5111 22.8937 24.4586 22.9197C24.3931 22.9457 24.3275 22.8937 24.2488 22.7701C24.1898 22.6661 24.0193 22.4969 23.862 22.3929C23.6325 22.2433 23.5144 22.2107 23.1866 22.2107C22.9637 22.2107 22.721 22.2368 22.6358 22.2628L22.4916 22.3148V19.5049C22.4916 16.786 22.485 16.6819 22.3539 16.4087C22.0653 15.8103 21.331 15.4591 20.6818 15.6022C20.2097 15.7062 19.8556 15.9794 19.6458 16.3957L19.4753 16.7405V20.7863V24.832L19.0754 24.4223C18.4918 23.8173 17.8361 23.5051 16.8853 23.3881C16.5182 23.3425 16.1969 23.4726 16.0198 23.7328C15.8297 24.006 15.8297 24.2271 16.0067 24.6304C16.1575 24.9817 16.5903 26.1329 16.5903 26.1915C16.5903 26.263 1.64037 26.146 1.45022 26.0744C1.21417 25.9833 0.984676 25.7622 0.879765 25.515C0.801081 25.3394 0.787967 23.7198 0.787967 15.9014V6.50238H16.0001H31.2123V15.8949ZM21.272 16.4152C21.7244 16.6039 21.7047 16.4673 21.7047 19.9732C21.7047 24.045 21.7572 25.8663 21.8818 25.9898C22.026 26.1329 22.3342 26.1004 22.4522 25.9378C22.5375 25.8207 22.5571 25.5671 22.5571 24.5328C22.5571 23.284 22.5571 23.2775 22.721 23.1214C22.8915 22.9457 23.1931 22.9067 23.4161 23.0303C23.6784 23.1669 23.7243 23.4206 23.6849 24.6239C23.6587 25.6126 23.6653 25.7687 23.7636 25.9183C23.8554 26.0614 23.921 26.0874 24.1177 26.0679C24.4718 26.0419 24.5242 25.8923 24.5242 24.7995V23.8824L24.7275 23.7133C24.9963 23.4856 25.252 23.4921 25.5209 23.7328L25.7373 23.9214L25.77 25.1443C25.8028 26.3606 25.8028 26.3736 25.9602 26.4452C26.1569 26.5427 26.3667 26.4712 26.4716 26.2695C26.5241 26.172 26.5569 25.8207 26.5569 25.3329C26.5569 24.4548 26.6093 24.3182 26.9765 24.1946C27.2454 24.11 27.4683 24.1816 27.665 24.4288C27.8093 24.6109 27.8093 24.6239 27.7896 27.1802L27.7699 29.7559L27.5929 30.0812C27.3699 30.504 26.9306 30.9072 26.5175 31.0634C26.2159 31.1804 25.9864 31.1869 22.9833 31.1869C19.8425 31.1869 19.7639 31.1869 19.4688 31.0503C19.0623 30.8617 18.6623 30.491 18.4918 30.1527C18.4197 29.9966 18.1246 28.9624 17.8361 27.8501C17.3706 26.0484 17.0099 24.8841 16.7476 24.3832C16.7017 24.2857 16.6755 24.1946 16.6952 24.1816C16.7608 24.1166 17.3968 24.2597 17.7574 24.4223C18.2361 24.6369 18.6033 24.9947 19.0885 25.7036L19.4753 26.2695V27.0566C19.4753 27.7526 19.4885 27.8501 19.6065 27.9672C19.7704 28.1298 19.8753 28.1298 20.0917 27.9607L20.2622 27.8306V22.3668C20.2622 16.4738 20.2556 16.6429 20.6031 16.4738C20.9441 16.3047 20.9966 16.3047 21.272 16.4152Z" fill="#FA7436"/>
<path d="M3.0173 1.7473C2.66979 1.81885 2.40095 1.98146 2.14523 2.28067C1.75181 2.73598 1.67968 3.34741 1.96819 3.90029C2.51242 4.94751 4.05986 4.95402 4.60409 3.90679C5.18766 2.80103 4.2369 1.50663 3.0173 1.7473ZM3.72546 2.59939C3.79103 2.59939 4.00085 3.0547 4.00085 3.20431C4.00085 3.82874 3.27958 4.13445 2.80748 3.71166C2.2567 3.22382 2.78781 2.34571 3.50908 2.54735C3.61399 2.57337 3.71234 2.59939 3.72546 2.59939Z" fill="#FA7436"/>
<path d="M6.95129 1.76682C5.84316 1.96846 5.39073 3.40595 6.17757 4.23853C6.71524 4.80442 7.71846 4.83694 8.28236 4.30357C8.86593 3.75069 8.92494 2.87258 8.4135 2.28067C8.02663 1.83186 7.53486 1.65624 6.95129 1.76682ZM7.77091 2.73599C7.93484 2.8921 7.96762 2.97665 7.96762 3.22382C7.96762 3.4775 7.93484 3.54905 7.75124 3.71166C7.27914 4.13445 6.55787 3.82874 6.55787 3.20431C6.55787 2.92462 6.78081 2.6124 7.02997 2.54736C7.3316 2.4628 7.54142 2.51483 7.77091 2.73599Z" fill="#FA7436"/>
<path d="M10.9712 1.76074C9.50902 2.03393 9.30575 4.02431 10.6893 4.60321C11.0499 4.75281 11.7253 4.68777 12.0597 4.46661C12.4793 4.18692 12.6826 3.83568 12.7088 3.30881C12.7285 2.95107 12.7088 2.80797 12.5908 2.5738C12.2957 1.96238 11.64 1.63716 10.9712 1.76074ZM11.7908 2.76244C12.0138 3.02262 11.9941 3.46492 11.7449 3.71209C11.5876 3.86169 11.4958 3.90072 11.2597 3.90072C10.7614 3.90072 10.4336 3.49744 10.5647 3.02912C10.7221 2.48274 11.4105 2.33314 11.7908 2.76244Z" fill="#FA7436"/>
<path d="M16.9837 2.77525C16.7214 2.86631 16.6362 3.22406 16.8394 3.39968C16.9509 3.50375 17.5082 3.51025 23.5275 3.51025H30.0976L30.2025 3.34764C30.3402 3.1395 30.2812 2.90534 30.0648 2.80777C29.9403 2.74923 28.2551 2.72971 23.4882 2.73622C19.9671 2.73622 17.0361 2.75573 16.9837 2.77525Z" fill="#FA7436"/>
<path d="M7.69901 10.5152C7.1679 11.1527 6.72202 11.686 6.71546 11.699C6.70235 11.712 6.53187 11.582 6.3286 11.4193C6.12534 11.2567 5.91551 11.1201 5.86961 11.1201C5.81716 11.1201 5.69913 11.1852 5.60078 11.2697C5.33194 11.4974 5.41718 11.686 6.00731 12.1544C6.49253 12.5446 6.69579 12.6162 6.97774 12.5121C7.16134 12.4405 9.24646 9.9103 9.24646 9.75419C9.24646 9.49401 9.12843 9.36392 8.89238 9.36392C8.68256 9.36392 8.60387 9.44198 7.69901 10.5152Z" fill="#FA7436"/>
<path d="M4.19102 9.72261C3.88285 9.89173 3.86318 10.0348 3.88285 12.1878L3.90252 14.1912L4.08611 14.3473L4.26971 14.5034H6.36794H8.46617L8.62354 14.3408C8.78091 14.1912 8.78746 14.1522 8.78746 13.3456C8.78746 12.6171 8.77435 12.4935 8.66944 12.4025C8.50551 12.2529 8.28913 12.2659 8.13177 12.422C8.0203 12.5326 8.00063 12.6366 8.00063 13.1375V13.7229H6.3286H4.65657L4.66968 12.0772L4.68935 10.4381L5.60733 10.4186C6.44662 10.4056 6.53186 10.3926 6.64333 10.269C6.79414 10.0804 6.78759 9.97629 6.59088 9.78766C6.43351 9.63155 6.41384 9.62505 5.39751 9.62505C4.63034 9.63155 4.31561 9.65106 4.19102 9.72261Z" fill="#FA7436"/>
<path d="M12.7869 9.93052C12.4656 10.0476 12.3607 10.3663 12.5771 10.555C12.6885 10.659 13.3377 10.6655 20.5438 10.6655C27.586 10.6655 28.3925 10.6525 28.4843 10.5615C28.5957 10.4574 28.622 10.2297 28.5367 10.0996C28.5105 10.0606 28.4056 9.98906 28.3072 9.95654C28.1105 9.88499 12.9836 9.85897 12.7869 9.93052Z" fill="#FA7436"/>
<path d="M12.5905 13.267C12.4266 13.4296 12.4201 13.6703 12.5774 13.8069C12.6889 13.911 13.338 13.9175 20.5376 13.9175C28.0453 13.9175 28.3797 13.911 28.4781 13.8004C28.6289 13.6378 28.6158 13.4231 28.4584 13.267C28.3273 13.1369 28.242 13.1369 20.5245 13.1369C12.8069 13.1369 12.7217 13.1369 12.5905 13.267Z" fill="#FA7436"/>
<path d="M7.76468 18.7117C7.26635 19.3101 6.82047 19.8435 6.78113 19.8955C6.71556 19.9801 6.66311 19.9606 6.4205 19.7654C5.92872 19.3687 5.73857 19.3361 5.51563 19.6028C5.35827 19.7915 5.48941 20.0191 6.00741 20.4224C6.59098 20.8842 6.82703 20.9297 7.14177 20.6305C7.25323 20.533 7.76468 19.9411 8.28924 19.3166C9.27934 18.1393 9.37769 17.9572 9.14164 17.7295C9.08919 17.671 8.95805 17.6255 8.85969 17.6255C8.70233 17.6255 8.54496 17.7816 7.76468 18.7117Z" fill="#FA7436"/>
<path d="M4.35526 17.9303C4.27658 17.9434 4.14544 18.0279 4.0602 18.119L3.90283 18.2881V20.3565V22.4249L4.0602 22.5941L4.21757 22.7632H6.34203H8.46649L8.62385 22.6006C8.78122 22.451 8.78778 22.4119 8.78778 21.5989C8.78778 20.7988 8.78122 20.7468 8.64353 20.6557C8.44026 20.5126 8.28945 20.5256 8.13208 20.6948C8.02061 20.8118 8.00094 20.9224 8.00094 21.4102V21.9826H6.32891H4.65688L4.67 20.337L4.68967 18.6979L5.62076 18.6784C6.53874 18.6654 6.55841 18.6588 6.66332 18.4962C6.80102 18.2946 6.70922 18.0409 6.4535 17.9499C6.29613 17.8848 4.64377 17.8718 4.35526 17.9303Z" fill="#FA7436"/>
<path d="M12.5708 18.3276C12.4331 18.4772 12.4266 18.6658 12.5512 18.8349C12.643 18.952 12.761 18.9585 15.1936 18.978C16.5903 18.9845 17.8033 18.978 17.882 18.9585C18.2164 18.8805 18.341 18.5227 18.1115 18.3211C18 18.2235 17.7115 18.2105 15.3313 18.2105C12.8397 18.2105 12.6692 18.217 12.5708 18.3276Z" fill="#FA7436"/>
<path d="M24.6814 18.3728C24.5568 18.5614 24.6093 18.7631 24.8191 18.8997C24.9437 18.9842 25.2387 18.9907 26.6878 18.9777C28.3008 18.9582 28.4123 18.9517 28.4975 18.8346C28.6221 18.659 28.6156 18.4444 28.4713 18.3208C28.3664 18.2232 28.1369 18.2102 26.5698 18.2102H24.7863L24.6814 18.3728Z" fill="#FA7436"/>
<path d="M12.7215 21.4432C12.4592 21.5343 12.3739 21.892 12.5772 22.0676C12.6756 22.1587 12.8526 22.1782 13.5476 22.1782C14.4853 22.1782 14.5574 22.1522 14.5574 21.814C14.5574 21.4627 14.3869 21.3977 13.5411 21.4042C13.1477 21.4042 12.7739 21.4237 12.7215 21.4432Z" fill="#FA7436"/>
</svg>
