<svg width="32" height="32" viewBox="0 0 32 32" fill="none" xmlns="http://www.w3.org/2000/svg">
<path d="M17.1309 0.0640411C17.0056 0.107866 16.8116 0.214298 16.7051 0.295687C16.605 0.377077 14.6954 3.11927 12.4666 6.39363L8.41593 12.3413L7.27022 12.3601L6.12451 12.3726L6.15581 12.1723C6.17459 12.0596 6.29355 10.9389 6.4125 9.68052C6.53145 8.42211 6.64415 7.2764 6.66293 7.1324C6.70049 6.87571 6.71927 6.85693 7.145 6.63154C7.57073 6.40615 8.17176 5.89278 8.42219 5.52965L8.54741 5.34809L10.3568 5.53592C11.5839 5.65487 12.2287 5.69869 12.3414 5.66113C12.692 5.54218 12.7171 5.00375 12.379 4.85976C12.2976 4.82219 11.4086 4.71576 10.3943 4.61559C8.35332 4.4215 8.19681 4.42777 7.89629 4.75958C7.79612 4.86602 7.57073 5.11019 7.38917 5.30427C7.20135 5.51087 6.93214 5.72374 6.71301 5.83017C6.15581 6.09938 5.96173 6.26842 5.86156 6.56267C5.79895 6.72545 5.65495 7.95255 5.49217 9.59912L5.22296 12.3726H4.92871H4.62819L4.6595 12.1347C4.67828 12.0095 4.87862 10.0499 5.09775 7.78351C5.32313 5.51087 5.536 3.60761 5.5673 3.53874C5.66121 3.36344 5.83651 3.29457 6.17459 3.29457C6.33737 3.29457 8.00898 3.45109 9.88094 3.63891C12.8986 3.93943 13.3118 3.96447 13.4621 3.88934C13.7626 3.73283 13.7501 3.23823 13.4433 3.10675C13.3619 3.07545 12.26 2.95024 10.9828 2.82502C9.7119 2.69981 8.08411 2.54329 7.36413 2.46816C6.63789 2.39929 5.94295 2.36173 5.79269 2.38051C5.22296 2.46816 4.73462 2.9565 4.62193 3.56379C4.58437 3.74535 4.40907 5.39818 4.22751 7.23883L3.90195 10.5883L3.1131 10.6259C2.43694 10.6509 2.28042 10.6822 2.02373 10.8137C1.49157 11.0892 1.19105 11.6088 1.18479 12.2787C1.17853 12.5792 1.16601 12.598 0.884278 12.7796C0.72776 12.8797 0.502374 13.0863 0.389681 13.2366C-0.0297878 13.7875 -0.0110056 13.3055 0.00777656 22.3334L0.0265587 30.4974L0.176816 30.823C0.358377 31.2362 0.871757 31.7183 1.2787 31.881C1.58548 32 1.91104 32 14.8019 32H28.012L28.3376 31.8497C28.7257 31.6744 29.189 31.2049 29.3768 30.7917C29.5083 30.5099 29.5146 30.4098 29.5334 28.0996L29.5521 25.708H29.7838C30.3222 25.708 30.798 25.4388 30.9608 25.0381C31.0297 24.8753 31.0485 24.2868 31.0485 22.202C31.0485 19.7039 31.0422 19.5537 30.9232 19.322C30.7354 18.9526 30.4725 18.7961 29.9716 18.7711L29.5459 18.746V16.4797C29.5459 14.5764 29.5271 14.1569 29.4457 13.8752C29.333 13.4996 29.0701 13.0738 28.8259 12.886C28.6819 12.7733 28.6694 12.717 28.6694 12.2975C28.6694 11.7403 28.4816 11.2958 28.1184 10.9953C27.8555 10.7824 27.3922 10.6196 27.0291 10.6196H26.7849L27.5174 9.54904C27.9244 8.95427 28.2875 8.34698 28.3376 8.1842C28.4878 7.68334 28.325 7.08858 27.9369 6.73171C27.843 6.64406 27.0166 6.06182 26.1025 5.442C25.1884 4.82219 23.0911 3.38848 21.4382 2.26155C19.7854 1.13462 18.3517 0.170473 18.2515 0.120388C17.9948 -0.0110893 17.4189 -0.0423927 17.1309 0.0640411ZM17.9072 0.984367C18.2891 1.18471 27.1605 7.2764 27.3108 7.43291C27.5863 7.72717 27.5424 7.87743 26.9352 8.77897C26.6284 9.22348 25.9647 10.2127 25.4451 10.9765L24.506 12.3664L24.1429 12.3726H23.786L24.5185 11.302C24.9192 10.7073 25.2823 10.1188 25.3324 9.98103C25.4263 9.6993 25.3888 9.48643 25.1258 8.86662C24.9818 8.52228 24.9505 8.3595 24.938 7.78351C24.9255 7.22631 24.8942 7.06979 24.7877 6.90075C24.7001 6.7505 23.9237 6.18703 22.1207 4.95993C20.7245 4.0083 19.5162 3.20066 19.4285 3.16936C19.1531 3.06293 18.8651 3.10049 18.358 3.3071C17.9322 3.4824 17.7882 3.50744 17.1997 3.51996C16.4109 3.53874 16.1855 3.62013 15.9163 4.00204C15.8098 4.14603 14.5076 6.05556 13.0176 8.24055C11.5275 10.4255 10.2754 12.2537 10.2378 12.2975C10.1877 12.3476 10.0437 12.3726 9.83712 12.3601L9.52408 12.3413L13.3369 6.73797C15.4342 3.6577 17.2123 1.08454 17.2811 1.02193C17.4314 0.902977 17.7194 0.884195 17.9072 0.984367ZM21.6261 5.72374L24.0051 7.34526L24.0427 8.02768C24.074 8.55984 24.1178 8.80401 24.2493 9.14835C24.3432 9.38626 24.4246 9.63043 24.4309 9.68052C24.4371 9.73686 24.049 10.3629 23.5669 11.0767L22.6904 12.3664L21.9078 12.3726H21.1189L21.0501 11.9532C20.9499 11.3772 20.543 10.5883 20.1172 10.125C19.6665 9.63669 19.1844 9.32365 18.5395 9.09827C17.231 8.6475 15.6659 9.01688 14.7017 10.0061C14.1633 10.557 13.7563 11.3396 13.6562 12.0158L13.6123 12.3413L12.4666 12.3601C11.5463 12.3726 11.3272 12.3601 11.3647 12.2975C11.396 12.2537 12.6106 10.4631 14.0694 8.31568L16.7239 4.4215H17.3124C17.7632 4.4215 18.0074 4.38394 18.383 4.26499C18.6522 4.17734 18.9152 4.08343 18.959 4.05212C19.0153 4.01456 19.0967 4.01456 19.1468 4.04586C19.2032 4.07717 20.3176 4.82845 21.6261 5.72374ZM18.0575 9.89964C18.5646 10.0374 18.984 10.2753 19.3659 10.6572C19.7604 11.0516 19.9983 11.4711 20.1172 11.9845L20.2049 12.3726H17.3625H14.5139L14.5577 12.1347C14.8457 10.5508 16.4923 9.49269 18.0575 9.89964ZM3.78926 11.7528C3.77047 11.8592 3.75169 12.0471 3.75169 12.1598V12.3726H2.9378H2.1239V12.1472C2.1239 11.9845 2.17399 11.878 2.30546 11.7403C2.48702 11.565 2.50581 11.5587 3.15692 11.5587H3.83308L3.78926 11.7528ZM27.4986 11.6902C27.6802 11.8279 27.8492 12.285 27.7553 12.3601C27.724 12.3851 27.2294 12.3977 26.6534 12.3851L25.6079 12.3664L25.8708 11.9657L26.1338 11.5587H26.7348C27.2482 11.5587 27.3609 11.5775 27.4986 11.6902ZM28.1497 13.5371C28.5442 13.8502 28.6068 14.0442 28.6068 14.9207V15.6908H14.7706H0.934364V14.9082C0.934364 14.351 0.959407 14.0693 1.02201 13.9503C1.13471 13.7312 1.4227 13.462 1.62304 13.3806C1.72322 13.343 6.26224 13.3243 14.8457 13.3305L27.9056 13.343L28.1497 13.5371ZM28.6068 17.6942V18.7586H26.2465C24.3557 18.7586 23.7985 18.7773 23.4792 18.8525C22.3836 19.1154 21.4445 19.9544 21.0313 21.0437C20.856 21.5133 20.7934 22.4712 20.9061 22.9595C21.1878 24.1741 22.1144 25.1633 23.3478 25.5577C23.642 25.6516 24.0302 25.6704 26.1526 25.6954L28.6068 25.7205V26.7786V27.8366H17.35C6.14329 27.8366 6.08694 27.8366 5.97425 27.9618C5.83025 28.1246 5.83025 28.4251 5.97425 28.5879C6.08694 28.7131 6.14329 28.7131 17.35 28.7131H28.6068V29.5082C28.6068 30.222 28.588 30.3346 28.4628 30.56C28.3814 30.6978 28.2123 30.8668 28.0746 30.9482L27.8242 31.0922H14.7831C0.251945 31.0922 1.49157 31.1298 1.13471 30.6665C0.971928 30.4536 0.965668 30.4098 0.946885 29.5771L0.921843 28.7131H2.24286C3.48248 28.7131 3.57013 28.7069 3.68908 28.5879C3.75795 28.519 3.8143 28.3813 3.8143 28.2749C3.8143 28.1684 3.75795 28.0307 3.68908 27.9618C3.57013 27.8429 3.48248 27.8366 2.24912 27.8366H0.934364V22.2333V16.6299H14.7706H28.6068V17.6942ZM30.0968 22.2145L30.1093 24.7689H27.0604C25.2698 24.7689 23.8924 24.7376 23.7359 24.7063C22.753 24.4746 21.9641 23.6419 21.7763 22.634C21.5259 21.2629 22.5401 19.8855 23.93 19.7039C24.1429 19.6726 25.6141 19.6538 27.1981 19.6601L30.078 19.6664L30.0968 22.2145Z" fill="#4086F4"/>
<path d="M23.8489 20.4425C23.0601 20.6867 22.4715 21.557 22.5529 22.3583C22.6531 23.3538 23.4044 24.0425 24.3748 24.0425C25.9901 24.0487 26.8102 22.2143 25.7584 20.9622C25.6708 20.8558 25.4266 20.6805 25.2137 20.5803C24.8944 20.4175 24.7567 20.3862 24.4186 20.3925C24.1932 20.3925 23.9366 20.4175 23.8489 20.4425ZM24.7504 21.3504C25.4078 21.6258 25.508 22.5462 24.9257 22.9781C24.6878 23.1597 24.1807 23.1785 23.924 23.022C23.2917 22.6213 23.3293 21.6822 23.9992 21.3817C24.3059 21.2439 24.475 21.2377 24.7504 21.3504Z" fill="#4086F4"/>
</svg>
