<svg width="113" height="114" viewBox="0 0 113 114" fill="none" xmlns="http://www.w3.org/2000/svg">
<path d="M106.176 16.68C96.9165 11.15 81.6465 24.47 77.7665 28.1C78.5491 25.7979 79.9051 23.733 81.7065 22.1C81.7487 22.0669 81.7825 22.0243 81.8051 21.9756C81.8277 21.9269 81.8385 21.8736 81.8365 21.82C81.8366 21.7684 81.8239 21.7176 81.7994 21.6722C81.775 21.6268 81.7396 21.5883 81.6965 21.56C80.8387 20.9802 79.8316 20.6607 78.7965 20.64C79.3292 19.9837 80.0136 19.4669 80.7906 19.1342C81.5676 18.8014 82.4139 18.6627 83.2565 18.73C83.3187 18.7392 83.3822 18.7299 83.4391 18.7032C83.496 18.6765 83.5438 18.6337 83.5765 18.58C83.6081 18.5253 83.6247 18.4632 83.6247 18.4C83.6247 18.3368 83.6081 18.2747 83.5765 18.22C83.1677 17.6016 82.6029 17.1021 81.9392 16.7719C81.2754 16.4418 80.5363 16.2928 79.7965 16.34C81.1065 15.34 84.0765 14.98 85.2765 14.94C85.3405 14.9394 85.4029 14.9201 85.4562 14.8846C85.5095 14.8491 85.5513 14.7988 85.5765 14.74C85.601 14.6827 85.6094 14.6197 85.6006 14.558C85.5917 14.4963 85.5661 14.4381 85.5265 14.39C84.3685 13.0431 82.7268 12.2061 80.9565 12.06C82.6165 10.06 87.5365 9.45998 87.5865 9.44998C87.6567 9.44459 87.7232 9.41621 87.7756 9.3692C87.828 9.3222 87.8635 9.25921 87.8765 9.19C87.893 9.15127 87.9016 9.10965 87.902 9.06757C87.9024 9.02548 87.8944 8.98375 87.8786 8.94473C87.8628 8.90572 87.8395 8.87019 87.81 8.84021C87.7804 8.81023 87.7453 8.78636 87.7065 8.76999C86.1457 7.77614 84.3763 7.15667 82.5365 6.95999C84.5365 4.47999 90.8965 2.95999 90.9665 2.95999C91.0343 2.94411 91.0956 2.90776 91.1421 2.8559C91.1886 2.80403 91.2181 2.73913 91.2265 2.66998C91.2343 2.60176 91.2213 2.53277 91.1892 2.47208C91.1571 2.41139 91.1073 2.36185 91.0465 2.32999C86.7865 0.109987 81.5865 2.26999 81.3465 2.32999C75.3465 5.32999 75.0765 15.28 75.7065 22.17C73.3465 13.8 68.2165 0.69 59.1465 0C58.8465 0 51.7765 -2.3365e-05 47.8965 4.56998C47.8573 4.62559 47.8363 4.69196 47.8363 4.75998C47.8363 4.828 47.8573 4.89436 47.8965 4.94998C47.9315 5.00977 47.9834 5.05784 48.0457 5.0881C48.108 5.11837 48.1779 5.12947 48.2465 5.12C48.3365 5.12 56.7865 3.74998 60.2465 5.84998C58.1358 6.9444 56.3209 8.53285 54.9565 10.48C54.9156 10.5387 54.8937 10.6085 54.8937 10.68C54.8937 10.7515 54.9156 10.8213 54.9565 10.88C54.9972 10.9372 55.0546 10.9804 55.1209 11.0037C55.1871 11.027 55.2589 11.0292 55.3265 11.01C55.3965 11.01 61.6665 9.25999 64.5465 10.96C63.5325 11.4515 62.627 12.1409 61.8834 12.9875C61.1398 13.8342 60.5731 14.821 60.2165 15.89C60.1958 15.9508 60.1933 16.0162 60.2093 16.0784C60.2253 16.1406 60.2591 16.1967 60.3065 16.24C60.3513 16.2851 60.4085 16.3158 60.4708 16.3283C60.5332 16.3408 60.5978 16.3344 60.6565 16.31C62.1465 15.76 66.0265 14.67 68.0265 15.41C67.1057 15.6779 66.2755 16.192 65.6252 16.8968C64.975 17.6017 64.5294 18.4706 64.3365 19.41C64.3268 19.4726 64.3347 19.5366 64.3595 19.5949C64.3842 19.6532 64.4247 19.7035 64.4765 19.74C64.5312 19.7716 64.5933 19.7882 64.6565 19.7882C64.7197 19.7882 64.7818 19.7716 64.8365 19.74C65.8256 19.2307 66.9276 18.9801 68.0397 19.0116C69.1517 19.0431 70.2378 19.3556 71.1965 19.92C69.9479 20.4256 68.8789 21.2927 68.1265 22.41C68.102 22.4562 68.0892 22.5077 68.0892 22.56C68.0892 22.6123 68.102 22.6638 68.1265 22.71C68.145 22.7593 68.1744 22.8038 68.2125 22.8401C68.2506 22.8765 68.2964 22.9038 68.3465 22.92C71.2899 23.9759 73.9087 25.7781 75.9465 28.15C71.0065 26.24 54.2465 20.49 48.3665 28.15C48.2265 28.36 44.9165 33.35 46.3665 38.24C46.3864 38.3056 46.4258 38.3636 46.4793 38.4064C46.5329 38.4493 46.5981 38.4749 46.6665 38.48H46.7165C46.7764 38.4736 46.8337 38.4518 46.8828 38.4168C46.9318 38.3817 46.971 38.3346 46.9965 38.28C46.9965 38.21 49.9165 31.77 52.9365 30.28C52.7564 32.2525 53.0442 34.2396 53.7765 36.08C53.7997 36.1458 53.8432 36.2025 53.9007 36.242C53.9582 36.2816 54.0268 36.3019 54.0965 36.3C54.1684 36.2989 54.238 36.2751 54.2955 36.232C54.353 36.1889 54.3954 36.1287 54.4165 36.06C54.4165 36.01 56.0665 30.93 58.5265 29.62C58.4169 30.5555 58.493 31.5034 58.7504 32.4094C59.0078 33.3155 59.4415 34.1618 60.0265 34.9C60.0666 34.949 60.12 34.9855 60.1803 35.005C60.2406 35.0245 60.3052 35.0262 60.3665 35.01C60.4281 34.9975 60.4847 34.9671 60.5292 34.9226C60.5736 34.8782 60.604 34.8216 60.6165 34.76C60.9065 33.5 61.8765 30.4 63.2465 29.26C63.0375 30.0276 63.0366 30.837 63.244 31.605C63.4514 32.373 63.8595 33.0719 64.4265 33.63C64.4732 33.672 64.5303 33.7006 64.5919 33.713C64.6535 33.7253 64.7172 33.7208 64.7765 33.7C64.8362 33.6765 64.8884 33.637 64.9272 33.5858C64.966 33.5347 64.99 33.4739 64.9965 33.41C65.1018 32.5062 65.4254 31.6416 65.9393 30.8907C66.4533 30.1399 67.1421 29.5253 67.9465 29.1C67.7473 30.192 67.8725 31.3184 68.3065 32.34C68.3265 32.388 68.3579 32.4303 68.398 32.4634C68.4381 32.4965 68.4856 32.5194 68.5365 32.53C68.587 32.5411 68.6393 32.5406 68.6896 32.5285C68.7398 32.5164 68.7866 32.4929 68.8265 32.46C69.6166 31.8403 70.4797 31.3197 71.3965 30.91C70.996 31.2794 70.6852 31.7354 70.4876 32.2432C70.2901 32.7509 70.211 33.2971 70.2565 33.84C70.3379 34.7932 70.7944 35.6752 71.5257 36.2921C72.2569 36.9089 73.2032 37.2103 74.1565 37.13C74.9402 37.0612 75.6789 36.7341 76.2565 36.2C77.1065 38.42 80.3565 49.06 74.8565 70.2C67.4365 72.43 66.2565 74.77 65.2265 76.84C64.8925 77.5921 64.4475 78.2899 63.9065 78.91C63.3837 79.649 63.0745 80.5177 63.0128 81.4209C62.951 82.324 63.1391 83.2267 63.5565 84.03C64.9265 86.89 69.4365 90.03 83.0965 88.88C92.4965 88.08 98.2865 85.88 100.306 82.34C100.717 81.6619 100.963 80.8975 101.025 80.1076C101.088 79.3177 100.965 78.5241 100.666 77.79C98.6665 73.01 93.5465 69.14 88.6665 68.67C87.8865 60.96 85.4965 42.89 79.8365 35.67C80.0758 35.695 80.3171 35.695 80.5565 35.67C81.5106 35.5861 82.3925 35.1274 83.0092 34.3946C83.6258 33.6617 83.9269 32.7144 83.8465 31.76C83.7843 31.0427 83.5079 30.3607 83.0532 29.8026C82.5984 29.2444 81.9864 28.8358 81.2965 28.63C83.2228 28.4626 85.1635 28.6422 87.0265 29.16C87.0716 29.1821 87.1212 29.1935 87.1715 29.1935C87.2217 29.1935 87.2713 29.1821 87.3165 29.16C87.3608 29.1322 87.3977 29.094 87.4239 29.0487C87.45 29.0033 87.4647 28.9523 87.4665 28.9C87.4916 27.6563 87.1433 26.4337 86.4665 25.39C87.4827 25.4859 88.4589 25.8332 89.3074 26.4005C90.1558 26.9679 90.8497 27.7375 91.3265 28.64C91.3541 28.6962 91.3968 28.7437 91.4497 28.7773C91.5027 28.8108 91.5638 28.829 91.6265 28.83C91.6892 28.829 91.7503 28.8108 91.8033 28.7773C91.8562 28.7437 91.8989 28.6962 91.9265 28.64C92.2894 27.8305 92.4253 26.9376 92.3196 26.0568C92.2139 25.176 91.8706 24.3406 91.3265 23.64C93.2065 24.19 95.5265 27.04 96.3265 28.24C96.3608 28.2896 96.4075 28.3295 96.4618 28.3557C96.5161 28.382 96.5763 28.3938 96.6365 28.39C96.6999 28.3806 96.7593 28.3528 96.8073 28.3102C96.8552 28.2676 96.8897 28.2119 96.9065 28.15C97.2028 27.1583 97.3005 26.1178 97.1941 25.0882C97.0877 24.0587 96.7793 23.0602 96.2865 22.15C99.3565 22.45 103.136 27.06 103.176 27.15C103.221 27.2045 103.282 27.2442 103.349 27.2638C103.417 27.2835 103.489 27.2821 103.556 27.26C103.625 27.2377 103.684 27.1931 103.724 27.1332C103.764 27.0733 103.782 27.0017 103.776 26.93C103.785 24.7374 103.271 22.5743 102.276 20.62C105.986 20.9 111.616 26.4 111.676 26.46C111.726 26.5085 111.789 26.5403 111.857 26.5511C111.925 26.5618 111.995 26.551 112.056 26.52C112.118 26.4914 112.17 26.4443 112.204 26.3852C112.238 26.3261 112.253 26.2579 112.246 26.19C111.816 20.62 106.426 16.85 106.176 16.68ZM88.2865 72.29C88.1556 73.3407 87.7248 74.3314 87.0456 75.1437C86.3663 75.9559 85.4675 76.5553 84.4565 76.87C81.6165 77.87 77.6065 77.21 75.7065 75.43C75.3195 75.1157 75.0302 74.6976 74.8725 74.2246C74.7149 73.7517 74.6954 73.2436 74.8165 72.76L75.0565 71.88C77.5161 72.7941 80.1357 73.1989 82.7565 73.07C84.7978 72.9877 86.7286 72.1208 88.1465 70.65C88.2365 71.56 88.2765 72.14 88.2865 72.29ZM88.0565 69.69C84.6265 74.3 76.7965 71.79 75.2265 71.22C75.6865 69.52 76.0898 67.8866 76.4365 66.32C78.2038 67.411 80.2788 67.8956 82.3465 67.7C84.2206 67.5011 86.029 66.8972 87.6465 65.93C87.8165 67.39 87.9565 68.67 88.0565 69.69ZM87.5565 65.2C81.5565 68.8 77.4365 66.2 76.5565 65.61C76.8965 64.04 77.1765 62.54 77.4265 61.11C79.0388 61.6306 80.7373 61.831 82.4265 61.7C83.9711 61.5775 85.4699 61.1166 86.8165 60.35C87.1465 62.08 87.3665 63.77 87.5565 65.2ZM77.5565 60.43C77.8065 58.93 78.0065 57.49 78.1565 56.14C79.4797 56.624 80.8929 56.8117 82.2965 56.69C83.6079 56.5788 84.8801 56.1866 86.0265 55.54C86.2965 56.93 86.5265 58.3 86.7365 59.63C85.3493 60.3932 83.8181 60.8586 82.2409 60.9963C80.6636 61.1341 79.075 60.9412 77.5765 60.43H77.5565ZM78.2265 55.43C78.3565 54.15 78.4565 52.93 78.5165 51.78C79.6462 52.1552 80.8401 52.298 82.0265 52.2C83.1246 52.1022 84.1871 51.7605 85.1365 51.2C85.4065 52.39 85.6665 53.6 85.8965 54.79C84.7497 55.4597 83.4681 55.8656 82.1448 55.978C80.8215 56.0904 79.4898 55.9067 78.2465 55.44L78.2265 55.43ZM78.5565 51.07C78.5565 50 78.6165 48.99 78.6065 48.07C79.3451 48.2044 80.0982 48.2414 80.8465 48.18C82.0011 48.1021 83.1102 47.7 84.0465 47.02C84.3765 48.18 84.6865 49.37 84.9665 50.57C84.0021 51.1134 82.9311 51.4405 81.8276 51.5286C80.7242 51.6167 79.6148 51.4636 78.5765 51.08L78.5565 51.07ZM78.6065 47.34C78.6065 46.15 78.5265 45.06 78.4365 44.06C78.9741 44.1817 79.5274 44.2188 80.0765 44.17C81.0674 44.0806 82.0183 43.7361 82.8365 43.17C83.1865 44.17 83.5265 45.17 83.8365 46.26C83.0925 46.7956 82.2444 47.1694 81.347 47.3571C80.4496 47.5449 79.5229 47.5424 78.6265 47.35L78.6065 47.34ZM78.3765 43.34C78.2898 42.5 78.1898 41.73 78.0765 41.03C78.3924 41.0609 78.7106 41.0609 79.0265 41.03C79.9498 40.9656 80.8303 40.6162 81.5465 40.03C81.9165 40.82 82.2565 41.66 82.5965 42.53C82.0058 42.9788 81.3199 43.2861 80.5918 43.4283C79.8637 43.5704 79.1127 43.5436 78.3965 43.35L78.3765 43.34ZM77.9665 40.34C77.8165 39.54 77.6665 38.85 77.5165 38.26C77.7227 38.28 77.9303 38.28 78.1365 38.26C78.8912 38.2083 79.6017 37.885 80.1365 37.35C80.5539 37.9946 80.9345 38.6624 81.2765 39.35C80.837 39.7508 80.3136 40.0486 79.7444 40.2216C79.1753 40.3946 78.5747 40.4384 77.9865 40.35L77.9665 40.34ZM77.3165 37.54C77.1265 36.88 76.9565 36.39 76.8265 36.05H77.2565C77.7869 36.0013 78.2996 35.8338 78.7565 35.56C79.1131 35.9435 79.447 36.3475 79.7565 36.77C79.4578 37.102 79.0766 37.3491 78.6516 37.4861C78.2265 37.6231 77.7728 37.6451 77.3365 37.55L77.3165 37.54ZM78.6265 34.85C78.2982 35.075 77.9285 35.2324 77.5387 35.3131C77.149 35.3938 76.7471 35.3961 76.3565 35.32C75.7375 35.1929 75.1763 34.8691 74.7564 34.397C74.3365 33.9248 74.0804 33.3295 74.0265 32.7C73.9921 32.3221 74.0327 31.9412 74.146 31.5791C74.2592 31.217 74.4429 30.8809 74.6865 30.59C74.9306 30.287 75.2338 30.0367 75.5776 29.8545C75.9214 29.6723 76.2987 29.5619 76.6865 29.53H77.1165C77.4875 29.5487 77.8511 29.6404 78.1865 29.8C78.6506 30.0188 79.0492 30.3556 79.3423 30.7768C79.6353 31.198 79.8126 31.6887 79.8565 32.2C79.9073 32.7107 79.8221 33.2257 79.6096 33.6929C79.3971 34.1601 79.0648 34.5627 78.6465 34.86L78.6265 34.85ZM81.6265 3.01999C82.9093 2.52295 84.256 2.20986 85.6265 2.09C87.0587 1.94115 88.506 2.1084 89.8665 2.57999C87.7765 3.15999 82.8665 4.74 81.6265 7.16C81.5946 7.21095 81.5776 7.26985 81.5776 7.32999C81.5776 7.39012 81.5946 7.44905 81.6265 7.5C81.6577 7.55031 81.7023 7.59095 81.7553 7.61743C81.8082 7.64391 81.8675 7.6552 81.9265 7.64999C83.5257 7.68824 85.0913 8.1174 86.4865 8.89999C84.7065 9.22999 81.0565 10.13 79.9965 12.19C79.9675 12.2402 79.9523 12.2971 79.9523 12.355C79.9523 12.4129 79.9675 12.4698 79.9965 12.52C80.0273 12.5714 80.0715 12.6134 80.1243 12.6416C80.1772 12.6698 80.2367 12.6831 80.2965 12.68C81.8351 12.6871 83.3181 13.2561 84.4665 14.28C82.9465 14.41 79.5165 14.9 78.6365 16.57C78.6028 16.624 78.5849 16.6864 78.5849 16.75C78.5849 16.8136 78.6028 16.876 78.6365 16.93C78.6722 16.9847 78.7243 17.0268 78.7854 17.0501C78.8465 17.0735 78.9133 17.0769 78.9765 17.06C79.6004 16.9346 80.2453 16.96 80.8576 17.1339C81.4698 17.3078 82.0316 17.6253 82.4965 18.06C81.5341 18.077 80.5923 18.3417 79.7621 18.8286C78.9318 19.3156 78.241 20.0083 77.7565 20.84C77.7247 20.8929 77.708 20.9533 77.708 21.015C77.708 21.0766 77.7247 21.1371 77.7565 21.19C77.7909 21.2419 77.839 21.2834 77.8955 21.3098C77.9519 21.3363 78.0145 21.3467 78.0765 21.34C79.0215 21.2747 79.9669 21.461 80.8165 21.88C79.118 23.5227 77.827 25.5397 77.0465 27.77C76.3365 22.97 74.1165 6.82 81.7065 3.03L81.6265 3.01999ZM68.8565 22.52C69.6652 21.56 70.7245 20.8434 71.9165 20.45C71.9765 20.4328 72.0306 20.3995 72.073 20.3537C72.1153 20.3078 72.1442 20.2512 72.1565 20.19C72.1662 20.1284 72.1592 20.0653 72.1364 20.0073C72.1135 19.9493 72.0756 19.8984 72.0265 19.86C71.0368 19.118 69.8712 18.6458 68.6441 18.4898C67.417 18.3338 66.1704 18.4993 65.0265 18.97C65.8365 16.47 68.6865 15.97 68.8165 15.91C68.8804 15.9018 68.9404 15.8745 68.9886 15.8317C69.0368 15.7889 69.0709 15.7325 69.0865 15.67C69.1012 15.6071 69.0988 15.5415 69.0794 15.4799C69.0601 15.4183 69.0245 15.3631 68.9765 15.32C67.1165 13.76 62.6865 14.97 60.9765 15.52C61.8137 13.665 63.3263 12.1989 65.2065 11.42C65.2633 11.4007 65.3139 11.3664 65.3526 11.3206C65.3914 11.2747 65.4169 11.2192 65.4265 11.16C65.4367 11.1017 65.432 11.0418 65.4127 10.9858C65.3935 10.9298 65.3604 10.8797 65.3165 10.84C63.0365 8.89 58.0765 9.72 55.9765 10.19C57.2689 8.50248 58.9687 7.17083 60.9165 6.31998C60.9728 6.29981 61.0228 6.26516 61.0614 6.21951C61.1 6.17386 61.1259 6.11885 61.1365 6.06C61.1487 6.0017 61.145 5.94117 61.1256 5.88483C61.1063 5.82849 61.072 5.77843 61.0265 5.73999C58.3165 3.45999 51.5265 4.06997 49.0265 4.37997C52.8065 0.719974 59.0265 0.73999 59.0865 0.73999C70.0065 1.57999 75.1765 22.33 76.3565 27.86C74.3422 25.501 71.781 23.6711 68.8965 22.53L68.8565 22.52ZM68.7065 31.77C68.441 30.7876 68.441 29.7524 68.7065 28.77C68.7251 28.7106 68.7265 28.6472 68.7106 28.587C68.6946 28.5268 68.662 28.4724 68.6165 28.43C68.573 28.3862 68.5181 28.3555 68.458 28.3413C68.3979 28.3272 68.335 28.3302 68.2765 28.35C67.3072 28.6954 66.4431 29.2843 65.7671 30.0602C65.0911 30.836 64.626 31.7726 64.4165 32.78C64.0463 32.1973 63.8229 31.5336 63.7654 30.8456C63.7079 30.1577 63.8181 29.466 64.0865 28.83C64.1205 28.778 64.1386 28.7172 64.1386 28.655C64.1386 28.5928 64.1205 28.532 64.0865 28.48C64.0436 28.4319 63.988 28.3969 63.926 28.3792C63.864 28.3615 63.7983 28.3618 63.7365 28.38C61.7965 28.95 60.5965 32.5 60.1665 34.03C59.3002 32.612 58.9936 30.9219 59.3065 29.29C59.3189 29.2325 59.3162 29.1729 59.2987 29.1168C59.2812 29.0607 59.2494 29.0102 59.2065 28.97C59.1652 28.926 59.112 28.895 59.0534 28.8808C58.9948 28.8666 58.9333 28.8698 58.8765 28.89C56.4965 29.58 54.8065 33.29 54.1265 35.06C53.5763 33.4188 53.4355 31.668 53.7165 29.96C53.7331 29.902 53.7335 29.8406 53.7176 29.7824C53.7017 29.7242 53.6702 29.6715 53.6265 29.63C53.5839 29.588 53.5307 29.5584 53.4726 29.5443C53.4144 29.5302 53.3536 29.5322 53.2965 29.55C50.4865 30.39 47.8265 35.25 46.8165 37.28C46.0865 32.99 48.9065 28.73 48.9265 28.7C50.6265 26.5 53.3565 25.51 56.4765 25.24C63.5265 24.64 72.4765 27.76 75.7865 29.01C73.24 29.3515 70.8123 30.2979 68.7065 31.77ZM74.5065 29.92L74.3365 30.08H74.0365L74.5065 29.92ZM70.8765 33.92C70.8436 33.5357 70.8869 33.1488 71.0039 32.7813C71.1209 32.4138 71.3093 32.073 71.5583 31.7785C71.8073 31.484 72.112 31.2416 72.4549 31.0651C72.7978 30.8886 73.1721 30.7815 73.5565 30.75H73.8565V30.8C73.8565 30.85 73.8065 30.91 73.7765 30.96C73.7081 31.0962 73.648 31.2365 73.5965 31.38L73.5365 31.59C73.496 31.7309 73.4659 31.8746 73.4465 32.02V32.21C73.4265 32.4262 73.4265 32.6438 73.4465 32.86C73.4618 33.0421 73.4919 33.2227 73.5365 33.4C73.5365 33.46 73.5365 33.52 73.5865 33.58L73.7065 33.92L73.7965 34.11C73.8438 34.2098 73.8973 34.3067 73.9565 34.4L74.0765 34.59C74.1342 34.6775 74.1977 34.761 74.2665 34.84L74.4165 35.01C74.4881 35.0916 74.5649 35.1684 74.6465 35.24L74.8165 35.38C74.9022 35.4522 74.9924 35.519 75.0865 35.58L75.2565 35.69C75.4006 35.7719 75.5511 35.8421 75.7065 35.9C75.2444 36.2925 74.6708 36.5303 74.0665 36.58C73.6746 36.6169 73.2793 36.5748 72.9041 36.4561C72.5288 36.3375 72.1812 36.1446 71.8818 35.8891C71.5824 35.6336 71.3374 35.3205 71.1613 34.9685C70.9852 34.6165 70.8815 34.2328 70.8565 33.84L70.8765 33.92ZM100.026 78.21C100.282 78.8583 100.383 79.5571 100.322 80.2512C100.262 80.9453 100.041 81.6159 99.6765 82.21C98.3665 84.49 94.4065 87.42 83.0065 88.4C69.0065 89.59 65.1765 86.11 64.1265 83.92C63.7746 83.2377 63.6113 82.4738 63.6535 81.7073C63.6957 80.9408 63.9418 80.1995 64.3665 79.56C64.9541 78.8919 65.4394 78.1404 65.8065 77.33C66.8065 75.33 67.8565 73.27 74.6165 71.16C74.4865 71.67 74.3465 72.16 74.2065 72.7C74.0415 73.3014 74.0558 73.9379 74.2477 74.5313C74.4395 75.1247 74.8006 75.649 75.2865 76.04C76.2861 76.8369 77.433 77.429 78.6615 77.7824C79.8901 78.1359 81.1762 78.2438 82.4465 78.1C83.2233 78.0338 83.989 77.8727 84.7265 77.62C85.8593 77.2635 86.8654 76.5883 87.6245 75.6749C88.3835 74.7616 88.8633 73.6489 89.0065 72.47V72.4C89.0065 72.19 88.9165 71.15 88.7565 69.54C91.1938 69.9352 93.4959 70.9261 95.4584 72.4246C97.4209 73.923 98.9832 75.8828 100.006 78.13L100.026 78.21ZM83.1665 32.01C83.1994 32.3935 83.1565 32.7797 83.0401 33.1465C82.9237 33.5134 82.7362 33.8538 82.4882 34.1481C82.2403 34.4425 81.9368 34.6852 81.595 34.8622C81.2533 35.0393 80.88 35.1473 80.4965 35.18C80.1611 35.2125 79.8225 35.1854 79.4965 35.1C79.5565 35.05 79.5965 34.99 79.6565 34.93L79.7365 34.84C79.8265 34.73 79.9165 34.61 79.9965 34.49C80.0665 34.38 80.1265 34.26 80.1865 34.15L80.2465 34.02C80.2465 33.93 80.3165 33.84 80.3465 33.74C80.3765 33.64 80.3465 33.64 80.3965 33.59C80.4257 33.4982 80.4491 33.4047 80.4665 33.31V33.16V32.86C80.4711 32.8134 80.4711 32.7666 80.4665 32.72C80.4765 32.5702 80.4765 32.4198 80.4665 32.27C80.4665 32.12 80.4665 31.98 80.3965 31.83C80.3265 31.68 80.3965 31.74 80.3965 31.69C80.3965 31.64 80.3465 31.5 80.3165 31.41L80.2565 31.25C80.224 31.1649 80.1873 31.0814 80.1465 31C80.1238 30.948 80.097 30.8978 80.0665 30.85C80.0665 30.77 79.9765 30.69 79.9265 30.61L79.8365 30.48C79.7752 30.3867 79.7048 30.2996 79.6265 30.22L79.5665 30.14C79.4715 30.0383 79.3713 29.9415 79.2665 29.85L79.1465 29.76L78.9765 29.62C79.2747 29.4895 79.5922 29.4084 79.9165 29.38C80.682 29.2952 81.45 29.5153 82.0545 29.9925C82.659 30.4697 83.0513 31.1657 83.1465 31.93L83.1665 32.01ZM101.706 20.01C101.648 20.0154 101.591 20.0357 101.542 20.0689C101.493 20.1021 101.453 20.1472 101.426 20.2C101.398 20.252 101.382 20.3105 101.382 20.37C101.382 20.4295 101.398 20.488 101.426 20.54C102.427 22.2075 102.997 24.0975 103.086 26.04C101.716 24.54 98.4565 21.34 95.7165 21.58C95.6585 21.5841 95.6027 21.604 95.5551 21.6375C95.5075 21.671 95.47 21.7168 95.4465 21.77C95.4176 21.822 95.4024 21.8805 95.4024 21.94C95.4024 21.9995 95.4176 22.058 95.4465 22.11C96.4282 23.6905 96.7848 25.5805 96.4465 27.41C95.4465 26.05 92.7265 22.82 90.4965 23.02C90.4315 23.0229 90.369 23.0454 90.3171 23.0847C90.2653 23.1241 90.2267 23.1782 90.2065 23.24C90.1819 23.2994 90.1763 23.365 90.1907 23.4277C90.205 23.4904 90.2385 23.5472 90.2865 23.59C90.8288 24.1446 91.2258 24.8245 91.4421 25.5695C91.6584 26.3144 91.6874 27.1012 91.5265 27.86C90.9054 26.9115 90.0518 26.1378 89.0471 25.6127C88.0423 25.0875 86.9198 24.8284 85.7865 24.86C85.7233 24.864 85.6623 24.8846 85.6097 24.9197C85.557 24.9549 85.5145 25.0032 85.4865 25.06C85.4619 25.1173 85.4536 25.1803 85.4624 25.242C85.4712 25.3037 85.4968 25.3619 85.5365 25.41C86.2214 26.3319 86.6369 27.4258 86.7365 28.57C84.8744 28.1058 82.9477 27.9571 81.0365 28.13C80.1104 28.2154 79.1915 28.3658 78.2865 28.58C82.2865 24.93 97.1365 12.15 105.776 17.32C105.826 17.32 110.516 20.63 111.446 25.39C109.706 23.69 104.936 19.68 101.706 19.96V20.01Z" fill="#E5E5E5"/>
<path d="M60.1765 40.68C50.9165 35.15 35.6465 48.47 31.7665 52.1C32.5491 49.7979 33.9051 47.733 35.7065 46.1C35.7487 46.0669 35.7825 46.0243 35.8051 45.9756C35.8277 45.9269 35.8385 45.8736 35.8365 45.82C35.8366 45.7684 35.8239 45.7176 35.7994 45.6722C35.775 45.6268 35.7396 45.5883 35.6965 45.56C34.8387 44.9802 33.8316 44.6607 32.7965 44.64C33.3292 43.9837 34.0136 43.4669 34.7906 43.1342C35.5676 42.8014 36.4139 42.6627 37.2565 42.73C37.3187 42.7392 37.3822 42.7299 37.4391 42.7032C37.496 42.6765 37.5438 42.6337 37.5765 42.58C37.6081 42.5253 37.6247 42.4632 37.6247 42.4C37.6247 42.3368 37.6081 42.2747 37.5765 42.22C37.1677 41.6016 36.6029 41.1021 35.9392 40.7719C35.2754 40.4418 34.5363 40.2928 33.7965 40.34C35.1065 39.34 38.0765 38.98 39.2765 38.94C39.3405 38.9394 39.4029 38.9201 39.4562 38.8846C39.5095 38.8491 39.5513 38.7988 39.5765 38.74C39.601 38.6827 39.6094 38.6197 39.6006 38.558C39.5917 38.4963 39.5661 38.4381 39.5265 38.39C38.3685 37.0431 36.7268 36.2061 34.9565 36.06C36.6165 34.06 41.5365 33.46 41.5865 33.45C41.6567 33.4446 41.7232 33.4162 41.7756 33.3692C41.828 33.3222 41.8635 33.2592 41.8765 33.19C41.893 33.1513 41.9016 33.1097 41.902 33.0676C41.9024 33.0255 41.8944 32.9837 41.8786 32.9447C41.8628 32.9057 41.8395 32.8702 41.81 32.8402C41.7804 32.8102 41.7453 32.7864 41.7065 32.77C40.1457 31.7761 38.3763 31.1567 36.5365 30.96C38.5365 28.48 44.8965 26.96 44.9665 26.96C45.0343 26.9441 45.0956 26.9078 45.1421 26.8559C45.1886 26.804 45.2181 26.7391 45.2265 26.67C45.2343 26.6018 45.2213 26.5328 45.1892 26.4721C45.1571 26.4114 45.1073 26.3619 45.0465 26.33C40.7865 24.11 35.5865 26.27 35.3465 26.33C29.3465 29.33 29.0765 39.28 29.7065 46.17C27.3465 37.8 22.2165 24.69 13.1465 24C12.8465 24 5.77649 24 1.89649 28.57C1.85733 28.6256 1.83631 28.692 1.83631 28.76C1.83631 28.828 1.85733 28.8944 1.89649 28.95C1.93146 29.0098 1.98336 29.0578 2.04566 29.0881C2.10797 29.1184 2.17786 29.1295 2.24647 29.12C2.33647 29.12 10.7865 27.75 14.2465 29.85C12.1358 30.9444 10.3209 32.5329 8.95649 34.48C8.91563 34.5387 8.89372 34.6085 8.89372 34.68C8.89372 34.7515 8.91563 34.8213 8.95649 34.88C8.99719 34.9372 9.05461 34.9804 9.12086 35.0037C9.18711 35.027 9.25894 35.0292 9.32649 35.01C9.39649 35.01 15.6665 33.26 18.5465 34.96C17.5325 35.4515 16.627 36.1409 15.8834 36.9875C15.1398 37.8342 14.5731 38.821 14.2165 39.89C14.1958 39.9508 14.1933 40.0162 14.2093 40.0784C14.2253 40.1406 14.2591 40.1967 14.3065 40.24C14.3513 40.2851 14.4085 40.3158 14.4708 40.3283C14.5332 40.3408 14.5978 40.3344 14.6565 40.31C16.1465 39.76 20.0265 38.67 22.0265 39.41C21.1057 39.6779 20.2755 40.192 19.6252 40.8968C18.975 41.6017 18.5294 42.4706 18.3365 43.41C18.3268 43.4726 18.3347 43.5366 18.3595 43.5949C18.3842 43.6532 18.4247 43.7035 18.4765 43.74C18.5312 43.7716 18.5933 43.7882 18.6565 43.7882C18.7197 43.7882 18.7818 43.7716 18.8365 43.74C19.8256 43.2307 20.9276 42.9801 22.0397 43.0116C23.1517 43.0431 24.2378 43.3556 25.1965 43.92C23.9479 44.4256 22.8789 45.2927 22.1265 46.41C22.102 46.4562 22.0892 46.5077 22.0892 46.56C22.0892 46.6123 22.102 46.6638 22.1265 46.71C22.145 46.7593 22.1744 46.8038 22.2125 46.8401C22.2506 46.8765 22.2964 46.9038 22.3465 46.92C25.2899 47.9759 27.9087 49.7781 29.9465 52.15C25.0065 50.24 8.24646 44.49 2.36646 52.15C2.22646 52.36 -1.08354 57.35 0.366464 62.24C0.38644 62.3056 0.42578 62.3636 0.479318 62.4064C0.532856 62.4493 0.59814 62.4749 0.666513 62.48H0.7165C0.776445 62.4736 0.833704 62.4518 0.88276 62.4168C0.931816 62.3817 0.970973 62.3346 0.996469 62.28C0.996469 62.21 3.9165 55.77 6.9365 54.28C6.75637 56.2525 7.04416 58.2396 7.7765 60.08C7.79973 60.1458 7.84321 60.2025 7.9007 60.242C7.9582 60.2816 8.02676 60.3019 8.09651 60.3C8.16836 60.2989 8.23802 60.2751 8.29551 60.232C8.353 60.1889 8.39535 60.1287 8.41648 60.06C8.41648 60.01 10.0665 54.93 12.5265 53.62C12.4169 54.5555 12.493 55.5034 12.7504 56.4094C13.0078 57.3155 13.4415 58.1618 14.0265 58.9C14.0666 58.949 14.12 58.9855 14.1803 59.005C14.2406 59.0245 14.3052 59.0262 14.3665 59.01C14.4281 58.9975 14.4847 58.9671 14.5292 58.9226C14.5736 58.8782 14.604 58.8216 14.6165 58.76C14.9065 57.5 15.8765 54.4 17.2465 53.26C17.0375 54.0276 17.0366 54.837 17.244 55.605C17.4514 56.373 17.8595 57.0719 18.4265 57.63C18.4732 57.672 18.5303 57.7006 18.5919 57.713C18.6535 57.7253 18.7172 57.7208 18.7765 57.7C18.8362 57.6765 18.8884 57.637 18.9272 57.5858C18.966 57.5347 18.99 57.4739 18.9965 57.41C19.1018 56.5062 19.4254 55.6416 19.9393 54.8907C20.4533 54.1399 21.1421 53.5253 21.9465 53.1C21.7473 54.192 21.8725 55.3184 22.3065 56.34C22.3265 56.388 22.3579 56.4303 22.398 56.4634C22.4381 56.4965 22.4856 56.5194 22.5365 56.53C22.587 56.5411 22.6393 56.5406 22.6896 56.5285C22.7398 56.5164 22.7866 56.4929 22.8265 56.46C23.6166 55.8403 24.4797 55.3197 25.3965 54.91C24.996 55.2794 24.6852 55.7354 24.4876 56.2432C24.2901 56.7509 24.211 57.2971 24.2565 57.84C24.3379 58.7932 24.7944 59.6752 25.5257 60.2921C26.2569 60.9089 27.2032 61.2103 28.1565 61.13C28.9402 61.0612 29.6789 60.7341 30.2565 60.2C31.1065 62.42 34.3565 73.06 28.8565 94.2C21.4365 96.43 20.2565 98.77 19.2265 100.84C18.8925 101.592 18.4475 102.29 17.9065 102.91C17.3837 103.649 17.0745 104.518 17.0128 105.421C16.951 106.324 17.1391 107.227 17.5565 108.03C18.9265 110.89 23.4365 114.03 37.0965 112.88C46.4965 112.08 52.2865 109.88 54.3065 106.34C54.7165 105.662 54.9626 104.898 55.0251 104.108C55.0876 103.318 54.9648 102.524 54.6665 101.79C52.6665 97.01 47.5465 93.14 42.6665 92.67C41.8865 84.96 39.4965 66.89 33.8365 59.67C34.0758 59.695 34.3171 59.695 34.5565 59.67C35.5106 59.5861 36.3925 59.1274 37.0092 58.3946C37.6258 57.6617 37.9269 56.7144 37.8465 55.76C37.7843 55.0427 37.5079 54.3607 37.0532 53.8026C36.5984 53.2444 35.9864 52.8358 35.2965 52.63C37.2228 52.4626 39.1635 52.6422 41.0265 53.16C41.0716 53.1821 41.1212 53.1935 41.1715 53.1935C41.2217 53.1935 41.2713 53.1821 41.3165 53.16C41.3608 53.1322 41.3977 53.094 41.4239 53.0487C41.45 53.0033 41.4647 52.9523 41.4665 52.9C41.4916 51.6563 41.1433 50.4337 40.4665 49.39C41.4827 49.4859 42.4589 49.8332 43.3074 50.4005C44.1558 50.9679 44.8497 51.7375 45.3265 52.64C45.3541 52.6962 45.3968 52.7437 45.4497 52.7773C45.5027 52.8108 45.5638 52.829 45.6265 52.83C45.6892 52.829 45.7503 52.8108 45.8033 52.7773C45.8562 52.7437 45.8989 52.6962 45.9265 52.64C46.2894 51.8305 46.4253 50.9376 46.3196 50.0568C46.2139 49.176 45.8706 48.3406 45.3265 47.64C47.2065 48.19 49.5265 51.04 50.3265 52.24C50.3608 52.2896 50.4075 52.3295 50.4618 52.3557C50.5161 52.382 50.5763 52.3938 50.6365 52.39C50.6999 52.3806 50.7593 52.3528 50.8073 52.3102C50.8552 52.2676 50.8897 52.2119 50.9065 52.15C51.2028 51.1583 51.3005 50.1178 51.1941 49.0882C51.0877 48.0587 50.7793 47.0602 50.2865 46.15C53.3565 46.45 57.1365 51.06 57.1765 51.15C57.2213 51.2045 57.2816 51.2442 57.3495 51.2638C57.4173 51.2835 57.4895 51.2821 57.5565 51.26C57.6249 51.2377 57.6839 51.1931 57.7238 51.1332C57.7637 51.0733 57.7823 51.0017 57.7765 50.93C57.7849 48.7374 57.2707 46.5743 56.2765 44.62C59.9865 44.9 65.6165 50.4 65.6765 50.46C65.7256 50.5085 65.7887 50.5403 65.8568 50.5511C65.925 50.5618 65.9948 50.551 66.0565 50.52C66.1184 50.4914 66.1699 50.4443 66.2039 50.3852C66.2379 50.3261 66.2528 50.2579 66.2465 50.19C65.8165 44.62 60.4265 40.85 60.1765 40.68ZM42.2865 96.29C42.1556 97.3407 41.7248 98.3314 41.0456 99.1437C40.3663 99.9559 39.4675 100.555 38.4565 100.87C35.6165 101.87 31.6065 101.21 29.7065 99.43C29.3195 99.1157 29.0302 98.6976 28.8725 98.2246C28.7149 97.7517 28.6954 97.2436 28.8165 96.76L29.0565 95.88C31.5161 96.7941 34.1357 97.1989 36.7565 97.07C38.7978 96.9877 40.7286 96.1208 42.1465 94.65C42.2365 95.56 42.2765 96.14 42.2865 96.29ZM42.0565 93.69C38.6265 98.3 30.7965 95.79 29.2265 95.22C29.6865 93.52 30.0898 91.8866 30.4365 90.32C32.2038 91.411 34.2788 91.8956 36.3465 91.7C38.2206 91.5011 40.029 90.8972 41.6465 89.93C41.8165 91.39 41.9565 92.67 42.0565 93.69ZM41.5565 89.2C35.5565 92.8 31.4365 90.2 30.5565 89.61C30.8965 88.04 31.1765 86.54 31.4265 85.11C33.0388 85.6306 34.7373 85.831 36.4265 85.7C37.9711 85.5775 39.4699 85.1166 40.8165 84.35C41.1465 86.08 41.3665 87.77 41.5565 89.2ZM31.5565 84.43C31.8065 82.93 32.0065 81.49 32.1565 80.14C33.4797 80.624 34.8929 80.8117 36.2965 80.69C37.6079 80.5788 38.8801 80.1866 40.0265 79.54C40.2965 80.93 40.5265 82.3 40.7365 83.63C39.3493 84.3932 37.8181 84.8586 36.2409 84.9963C34.6636 85.1341 33.075 84.9412 31.5765 84.43H31.5565ZM32.2265 79.43C32.3565 78.15 32.4565 76.93 32.5165 75.78C33.6462 76.1552 34.8401 76.298 36.0265 76.2C37.1246 76.1022 38.1871 75.7605 39.1365 75.2C39.4065 76.39 39.6665 77.6 39.8965 78.79C38.7497 79.4597 37.4681 79.8656 36.1448 79.978C34.8215 80.0904 33.4898 79.9067 32.2465 79.44L32.2265 79.43ZM32.5565 75.07C32.5565 74 32.6165 72.99 32.6065 72.07C33.3451 72.2044 34.0982 72.2414 34.8465 72.18C36.0011 72.1021 37.1102 71.7 38.0465 71.02C38.3765 72.18 38.6865 73.37 38.9665 74.57C38.0021 75.1134 36.9311 75.4405 35.8276 75.5286C34.7242 75.6167 33.6148 75.4636 32.5765 75.08L32.5565 75.07ZM32.6065 71.34C32.6065 70.15 32.5265 69.06 32.4365 68.06C32.9741 68.1817 33.5274 68.2188 34.0765 68.17C35.0674 68.0806 36.0183 67.7361 36.8365 67.17C37.1865 68.17 37.5265 69.17 37.8365 70.26C37.0925 70.7956 36.2444 71.1694 35.347 71.3571C34.4496 71.5449 33.5229 71.5424 32.6265 71.35L32.6065 71.34ZM32.3765 67.34C32.2898 66.5 32.1898 65.73 32.0765 65.03C32.3924 65.0609 32.7106 65.0609 33.0265 65.03C33.9498 64.9656 34.8303 64.6162 35.5465 64.03C35.9165 64.82 36.2565 65.66 36.5965 66.53C36.0058 66.9788 35.3199 67.2861 34.5918 67.4283C33.8637 67.5704 33.1127 67.5436 32.3965 67.35L32.3765 67.34ZM31.9665 64.34C31.8165 63.54 31.6665 62.85 31.5165 62.26C31.7227 62.28 31.9303 62.28 32.1365 62.26C32.8912 62.2083 33.6017 61.885 34.1365 61.35C34.5539 61.9946 34.9345 62.6624 35.2765 63.35C34.837 63.7508 34.3136 64.0486 33.7444 64.2216C33.1753 64.3946 32.5747 64.4384 31.9865 64.35L31.9665 64.34ZM31.3165 61.54C31.1265 60.88 30.9565 60.39 30.8265 60.05H31.2565C31.7869 60.0013 32.2996 59.8338 32.7565 59.56C33.1131 59.9435 33.447 60.3475 33.7565 60.77C33.4578 61.102 33.0766 61.3491 32.6516 61.4861C32.2265 61.6231 31.7728 61.6451 31.3365 61.55L31.3165 61.54ZM32.6265 58.85C32.2982 59.075 31.9285 59.2324 31.5387 59.3131C31.149 59.3938 30.7471 59.3961 30.3565 59.32C29.7375 59.1929 29.1763 58.8691 28.7564 58.397C28.3365 57.9248 28.0804 57.3295 28.0265 56.7C27.9921 56.3221 28.0327 55.9412 28.146 55.5791C28.2592 55.217 28.4429 54.8809 28.6865 54.59C28.9306 54.287 29.2338 54.0367 29.5776 53.8545C29.9214 53.6723 30.2987 53.5619 30.6865 53.53H31.1165C31.4875 53.5487 31.8511 53.6404 32.1865 53.8C32.6506 54.0188 33.0492 54.3556 33.3423 54.7768C33.6353 55.198 33.8126 55.6887 33.8565 56.2C33.9073 56.7107 33.8221 57.2257 33.6096 57.6929C33.3971 58.1601 33.0648 58.5627 32.6465 58.86L32.6265 58.85ZM35.6265 27.02C36.9093 26.523 38.256 26.2099 39.6265 26.09C41.0587 25.9411 42.506 26.1084 43.8665 26.58C41.7765 27.16 36.8665 28.74 35.6265 31.16C35.5946 31.211 35.5776 31.2699 35.5776 31.33C35.5776 31.3901 35.5946 31.4491 35.6265 31.5C35.6577 31.5503 35.7023 31.5909 35.7553 31.6174C35.8082 31.6439 35.8675 31.6552 35.9265 31.65C37.5257 31.6882 39.0913 32.1174 40.4865 32.9C38.7065 33.23 35.0565 34.13 33.9965 36.19C33.9675 36.2402 33.9523 36.2971 33.9523 36.355C33.9523 36.4129 33.9675 36.4698 33.9965 36.52C34.0273 36.5714 34.0715 36.6134 34.1243 36.6416C34.1772 36.6698 34.2367 36.6831 34.2965 36.68C35.8351 36.6871 37.3181 37.2561 38.4665 38.28C36.9465 38.41 33.5165 38.9 32.6365 40.57C32.6028 40.624 32.5849 40.6864 32.5849 40.75C32.5849 40.8136 32.6028 40.876 32.6365 40.93C32.6722 40.9847 32.7243 41.0268 32.7854 41.0501C32.8465 41.0735 32.9133 41.0769 32.9765 41.06C33.6004 40.9346 34.2453 40.96 34.8576 41.1339C35.4698 41.3078 36.0316 41.6253 36.4965 42.06C35.5341 42.077 34.5923 42.3417 33.7621 42.8286C32.9318 43.3156 32.241 44.0083 31.7565 44.84C31.7247 44.8929 31.708 44.9533 31.708 45.015C31.708 45.0766 31.7247 45.1371 31.7565 45.19C31.7909 45.2419 31.839 45.2834 31.8955 45.3098C31.9519 45.3363 32.0145 45.3467 32.0765 45.34C33.0215 45.2747 33.9669 45.461 34.8165 45.88C33.118 47.5227 31.827 49.5397 31.0465 51.77C30.3365 46.97 28.1165 30.82 35.7065 27.03L35.6265 27.02ZM22.8565 46.52C23.6652 45.56 24.7245 44.8434 25.9165 44.45C25.9765 44.4328 26.0306 44.3995 26.073 44.3537C26.1153 44.3078 26.1442 44.2512 26.1565 44.19C26.1662 44.1284 26.1592 44.0653 26.1364 44.0073C26.1135 43.9493 26.0756 43.8984 26.0265 43.86C25.0368 43.118 23.8712 42.6458 22.6441 42.4898C21.417 42.3338 20.1704 42.4993 19.0265 42.97C19.8365 40.47 22.6865 39.97 22.8165 39.91C22.8804 39.9018 22.9404 39.8745 22.9886 39.8317C23.0368 39.7889 23.0709 39.7325 23.0865 39.67C23.1012 39.6071 23.0988 39.5415 23.0794 39.4799C23.0601 39.4183 23.0245 39.3631 22.9765 39.32C21.1165 37.76 16.6865 38.97 14.9765 39.52C15.8137 37.665 17.3263 36.1989 19.2065 35.42C19.2633 35.4007 19.3139 35.3664 19.3526 35.3206C19.3914 35.2747 19.4169 35.2192 19.4265 35.16C19.4367 35.1017 19.432 35.0418 19.4127 34.9858C19.3935 34.9298 19.3604 34.8797 19.3165 34.84C17.0365 32.89 12.0765 33.72 9.97648 34.19C11.2689 32.5025 12.9687 31.1708 14.9165 30.32C14.9728 30.2998 15.0228 30.2652 15.0614 30.2195C15.1 30.1739 15.1259 30.1189 15.1365 30.06C15.1487 30.0017 15.145 29.9412 15.1256 29.8848C15.1063 29.8285 15.072 29.7784 15.0265 29.74C12.3165 27.46 5.5265 28.07 3.0265 28.38C6.8065 24.72 13.0265 24.74 13.0865 24.74C24.0065 25.58 29.1765 46.33 30.3565 51.86C28.3422 49.501 25.781 47.6711 22.8965 46.53L22.8565 46.52ZM22.7065 55.77C22.441 54.7876 22.441 53.7524 22.7065 52.77C22.7251 52.7106 22.7265 52.6472 22.7106 52.587C22.6946 52.5268 22.662 52.4724 22.6165 52.43C22.573 52.3862 22.5181 52.3555 22.458 52.3413C22.3979 52.3272 22.335 52.3302 22.2765 52.35C21.3072 52.6954 20.4431 53.2843 19.7671 54.0602C19.0911 54.836 18.626 55.7726 18.4165 56.78C18.0463 56.1973 17.8229 55.5336 17.7654 54.8456C17.7079 54.1577 17.8181 53.466 18.0865 52.83C18.1205 52.778 18.1386 52.7172 18.1386 52.655C18.1386 52.5928 18.1205 52.532 18.0865 52.48C18.0436 52.4319 17.988 52.3969 17.926 52.3792C17.864 52.3615 17.7983 52.3618 17.7365 52.38C15.7965 52.95 14.5965 56.5 14.1665 58.03C13.3002 56.612 12.9936 54.9219 13.3065 53.29C13.3189 53.2325 13.3162 53.1729 13.2987 53.1168C13.2812 53.0607 13.2494 53.0102 13.2065 52.97C13.1652 52.926 13.112 52.895 13.0534 52.8808C12.9948 52.8666 12.9333 52.8698 12.8765 52.89C10.4965 53.58 8.8065 57.29 8.1265 59.06C7.57625 57.4188 7.4355 55.668 7.7165 53.96C7.73308 53.902 7.73347 53.8406 7.7176 53.7824C7.70173 53.7242 7.67023 53.6715 7.6265 53.63C7.58391 53.588 7.5307 53.5584 7.47257 53.5443C7.41445 53.5302 7.35358 53.5322 7.29649 53.55C4.48649 54.39 1.82648 59.25 0.816476 61.28C0.0864759 56.99 2.90646 52.73 2.92646 52.7C4.62646 50.5 7.35648 49.51 10.4765 49.24C17.5265 48.64 26.4765 51.76 29.7865 53.01C27.24 53.3515 24.8123 54.2979 22.7065 55.77ZM28.5065 53.92L28.3365 54.08H28.0365L28.5065 53.92ZM24.8765 57.92C24.8436 57.5357 24.8869 57.1488 25.0039 56.7813C25.1209 56.4138 25.3093 56.073 25.5583 55.7785C25.8073 55.484 26.112 55.2416 26.4549 55.0651C26.7978 54.8886 27.1721 54.7815 27.5565 54.75H27.8565V54.8C27.8565 54.85 27.8065 54.91 27.7765 54.96C27.7081 55.0962 27.648 55.2365 27.5965 55.38L27.5365 55.59C27.496 55.7309 27.4659 55.8746 27.4465 56.02V56.21C27.4265 56.4262 27.4265 56.6438 27.4465 56.86C27.4618 57.0421 27.4919 57.2227 27.5365 57.4C27.5365 57.46 27.5365 57.52 27.5865 57.58L27.7065 57.92L27.7965 58.11C27.8438 58.2098 27.8973 58.3067 27.9565 58.4L28.0765 58.59C28.1342 58.6775 28.1977 58.761 28.2665 58.84L28.4165 59.01C28.4881 59.0916 28.5649 59.1684 28.6465 59.24L28.8165 59.38C28.9022 59.4522 28.9924 59.519 29.0865 59.58L29.2565 59.69C29.4006 59.7719 29.5511 59.8421 29.7065 59.9C29.2444 60.2925 28.6708 60.5303 28.0665 60.58C27.6746 60.6169 27.2793 60.5748 26.9041 60.4561C26.5288 60.3375 26.1812 60.1446 25.8818 59.8891C25.5824 59.6336 25.3374 59.3205 25.1613 58.9685C24.9852 58.6165 24.8815 58.2328 24.8565 57.84L24.8765 57.92ZM54.0265 102.21C54.2818 102.858 54.3831 103.557 54.3224 104.251C54.2616 104.945 54.0405 105.616 53.6765 106.21C52.3665 108.49 48.4065 111.42 37.0065 112.4C23.0065 113.59 19.1765 110.11 18.1265 107.92C17.7746 107.238 17.6113 106.474 17.6535 105.707C17.6957 104.941 17.9418 104.2 18.3665 103.56C18.9541 102.892 19.4394 102.14 19.8065 101.33C20.8065 99.33 21.8565 97.27 28.6165 95.16C28.4865 95.67 28.3465 96.16 28.2065 96.7C28.0415 97.3014 28.0558 97.9379 28.2477 98.5313C28.4395 99.1247 28.8006 99.649 29.2865 100.04C30.2861 100.837 31.433 101.429 32.6615 101.782C33.8901 102.136 35.1762 102.244 36.4465 102.1C37.2233 102.034 37.989 101.873 38.7265 101.62C39.8593 101.264 40.8654 100.588 41.6245 99.6749C42.3835 98.7616 42.8633 97.6489 43.0065 96.47V96.4C43.0065 96.19 42.9165 95.15 42.7565 93.54C45.1938 93.9352 47.4959 94.9261 49.4584 96.4246C51.4209 97.923 52.9832 99.8828 54.0065 102.13L54.0265 102.21ZM37.1665 56.01C37.1994 56.3935 37.1565 56.7797 37.0401 57.1465C36.9237 57.5134 36.7362 57.8538 36.4882 58.1481C36.2403 58.4425 35.9368 58.6852 35.595 58.8622C35.2533 59.0393 34.88 59.1473 34.4965 59.18C34.1611 59.2125 33.8225 59.1854 33.4965 59.1C33.5565 59.05 33.5965 58.99 33.6565 58.93L33.7365 58.84C33.8265 58.73 33.9165 58.61 33.9965 58.49C34.0665 58.38 34.1265 58.26 34.1865 58.15L34.2465 58.02C34.2465 57.93 34.3165 57.84 34.3465 57.74C34.3765 57.64 34.3465 57.64 34.3965 57.59C34.4257 57.4982 34.4491 57.4047 34.4665 57.31V57.16V56.86C34.4711 56.8134 34.4711 56.7666 34.4665 56.72C34.4765 56.5702 34.4765 56.4198 34.4665 56.27C34.4665 56.12 34.4665 55.98 34.3965 55.83C34.3265 55.68 34.3965 55.74 34.3965 55.69C34.3965 55.64 34.3465 55.5 34.3165 55.41L34.2565 55.25C34.224 55.1649 34.1873 55.0814 34.1465 55C34.1238 54.948 34.097 54.8978 34.0665 54.85C34.0665 54.77 33.9765 54.69 33.9265 54.61L33.8365 54.48C33.7752 54.3867 33.7048 54.2996 33.6265 54.22L33.5665 54.14C33.4715 54.0383 33.3713 53.9415 33.2665 53.85L33.1465 53.76L32.9765 53.62C33.2747 53.4895 33.5922 53.4084 33.9165 53.38C34.682 53.2952 35.45 53.5153 36.0545 53.9925C36.659 54.4697 37.0513 55.1657 37.1465 55.93L37.1665 56.01ZM55.7065 44.01C55.6476 44.0154 55.591 44.0357 55.542 44.0689C55.493 44.1021 55.4533 44.1472 55.4265 44.2C55.3976 44.252 55.3824 44.3105 55.3824 44.37C55.3824 44.4295 55.3976 44.488 55.4265 44.54C56.4268 46.2075 56.9972 48.0975 57.0865 50.04C55.7165 48.54 52.4565 45.34 49.7165 45.58C49.6585 45.5841 49.6027 45.604 49.5551 45.6375C49.5075 45.671 49.47 45.7168 49.4465 45.77C49.4176 45.822 49.4024 45.8805 49.4024 45.94C49.4024 45.9995 49.4176 46.058 49.4465 46.11C50.4282 47.6905 50.7848 49.5805 50.4465 51.41C49.4465 50.05 46.7265 46.82 44.4965 47.02C44.4315 47.0229 44.369 47.0454 44.3171 47.0847C44.2653 47.1241 44.2267 47.1782 44.2065 47.24C44.1819 47.2994 44.1763 47.365 44.1907 47.4277C44.205 47.4904 44.2385 47.5472 44.2865 47.59C44.8288 48.1446 45.2258 48.8245 45.4421 49.5695C45.6584 50.3144 45.6874 51.1012 45.5265 51.86C44.9054 50.9115 44.0518 50.1378 43.0471 49.6127C42.0423 49.0875 40.9198 48.8284 39.7865 48.86C39.7233 48.864 39.6623 48.8846 39.6097 48.9197C39.557 48.9549 39.5145 49.0032 39.4865 49.06C39.4619 49.1173 39.4536 49.1803 39.4624 49.242C39.4712 49.3037 39.4968 49.3619 39.5365 49.41C40.2214 50.3319 40.6369 51.4258 40.7365 52.57C38.8744 52.1058 36.9477 51.9571 35.0365 52.13C34.1104 52.2154 33.1915 52.3658 32.2865 52.58C36.2865 48.93 51.1365 36.15 59.7765 41.32C59.8265 41.32 64.5165 44.63 65.4465 49.39C63.7065 47.69 58.9365 43.68 55.7065 43.96V44.01Z" fill="#E5E5E5"/>
</svg>
