<svg width="32" height="32" viewBox="0 0 32 32" fill="none" xmlns="http://www.w3.org/2000/svg">
<g clip-path="url(#clip0_609_2)">
<g filter="url(#filter0_d_609_2)">
<path fill-rule="evenodd" clip-rule="evenodd" d="M16 32C24.8366 32 32 24.8366 32 16C32 7.16344 24.8366 0 16 0C7.16344 0 0 7.16344 0 16C0 24.8366 7.16344 32 16 32Z" fill="#FA7436"/>
</g>
<g clip-path="url(#clip1_609_2)">
<path d="M20.3776 9.95557H12.3332C11.4143 9.95557 10.6665 10.7033 10.6665 11.6222V19.6667C10.6665 20.5858 11.4143 21.3333 12.3332 21.3333H20.3776C21.2967 21.3333 22.0443 20.5858 22.0443 19.6667V11.6222C22.0443 10.7033 21.2967 9.95557 20.3776 9.95557ZM21.3776 19.6667C21.3776 20.218 20.9289 20.6667 20.3776 20.6667H12.3332C11.7818 20.6667 11.3332 20.218 11.3332 19.6667V11.6222C11.3332 11.0709 11.7818 10.6222 12.3332 10.6222H20.3776C20.9289 10.6222 21.3776 11.0709 21.3776 11.6222V19.6667Z" fill="white"/>
<path d="M20.0221 11.311C19.6546 11.311 19.3555 11.6101 19.3555 11.9777C19.3555 12.3453 19.6546 12.6444 20.0221 12.6444C20.3897 12.6444 20.6888 12.3453 20.6888 11.9777C20.6888 11.6101 20.3897 11.311 20.0221 11.311Z" fill="white"/>
<path d="M16.3555 12.6444C14.7012 12.6444 13.3555 13.9902 13.3555 15.6444C13.3555 17.2986 14.7012 18.6444 16.3555 18.6444C18.0097 18.6444 19.3555 17.2986 19.3555 15.6444C19.3555 13.9902 18.0097 12.6444 16.3555 12.6444ZM16.3555 17.9777C15.0688 17.9777 14.0221 16.9311 14.0221 15.6444C14.0221 14.3577 15.0688 13.3111 16.3555 13.3111C17.6421 13.3111 18.6888 14.3577 18.6888 15.6444C18.6888 16.9311 17.6421 17.9777 16.3555 17.9777Z" fill="white"/>
</g>
</g>
<defs>
<filter id="filter0_d_609_2" x="-10" y="-8" width="52" height="52" filterUnits="userSpaceOnUse" color-interpolation-filters="sRGB">
<feFlood flood-opacity="0" result="BackgroundImageFix"/>
<feColorMatrix in="SourceAlpha" type="matrix" values="0 0 0 0 0 0 0 0 0 0 0 0 0 0 0 0 0 0 127 0" result="hardAlpha"/>
<feOffset dy="2"/>
<feGaussianBlur stdDeviation="5"/>
<feColorMatrix type="matrix" values="0 0 0 0 0 0 0 0 0 0 0 0 0 0 0 0 0 0 0.1 0"/>
<feBlend mode="normal" in2="BackgroundImageFix" result="effect1_dropShadow_609_2"/>
<feBlend mode="normal" in="SourceGraphic" in2="effect1_dropShadow_609_2" result="shape"/>
</filter>
<clipPath id="clip0_609_2">
<rect width="32" height="32" fill="white"/>
</clipPath>
<clipPath id="clip1_609_2">
<rect width="11.3778" height="11.3778" fill="white" transform="translate(10.6665 9.95557)"/>
</clipPath>
</defs>
</svg>
