<svg width="28" height="32" viewBox="0 0 28 32" fill="none" xmlns="http://www.w3.org/2000/svg">
<path d="M12.3419 0.0692043C8.29971 0.475925 4.57663 2.7348 2.26771 6.1888C1.17894 7.82195 0.359241 10.0808 0.108951 12.1332C0.0150921 12.9154 0.0338639 14.3921 0.140237 15.0241C0.816022 18.8723 4.62669 24.3036 10.7463 30.1353C12.004 31.3305 12.2856 31.5682 12.6798 31.7685C13.1241 31.9875 13.1804 32 13.7498 32C14.3192 32 14.3755 31.9875 14.8198 31.7685C15.214 31.5682 15.4956 31.3305 16.7533 30.1353C20.7266 26.3497 23.9241 22.489 25.6886 19.329C26.5584 17.7647 27.0777 16.4445 27.3343 15.1304C27.472 14.4234 27.497 13.0155 27.3906 12.1332C27.1591 10.2122 26.4458 8.15358 25.4696 6.56424C24.7125 5.33782 23.4673 3.92993 22.3473 3.02263C19.5565 0.782532 15.9273 -0.293716 12.3419 0.0692043ZM15.7521 1.08914C19.0622 1.63978 22.0156 3.42935 23.9929 6.08869C25.3132 7.85949 26.1016 9.78047 26.427 12.0081C26.5772 13.078 26.5271 14.6424 26.3018 15.4808C25.3257 19.1851 21.8342 23.9594 16.0087 29.5472C15.2327 30.2855 14.607 30.8361 14.4443 30.9175C14.0689 31.099 13.6497 31.1302 13.2617 30.9988C12.8863 30.88 12.0478 30.1291 10.1894 28.2707C6.23481 24.3223 3.6443 20.9935 2.17385 17.9837C1.26029 16.1253 0.984968 15.0866 0.984968 13.5411C0.984968 7.83446 5.0209 2.7348 10.6587 1.3144C11.1342 1.19551 12.1354 1.02031 12.6548 0.970249C13.1804 0.920191 15.1827 0.995277 15.7521 1.08914Z" fill="#FFB60A"/>
<path d="M12.686 3.50435C10.3521 3.77342 8.34348 4.70575 6.65402 6.31386C5.13351 7.76555 4.12609 9.5739 3.66305 11.7139C3.54416 12.2645 3.52539 12.5398 3.52539 13.7287C3.52539 14.9176 3.54416 15.1929 3.66305 15.7373C3.96966 17.1389 4.57661 18.5468 5.34625 19.6418C5.95321 20.4991 7.11706 21.6379 7.95553 22.201C10.2645 23.7403 12.7486 24.291 15.4705 23.8592C15.8146 23.8029 16.1838 23.7216 16.2965 23.6778C16.6218 23.5401 16.6656 23.1021 16.3715 22.8831C16.2151 22.7642 16.2026 22.7642 15.4955 22.9019C14.5632 23.0896 13.0177 23.1021 12.1229 22.9331C10.2019 22.564 8.52494 21.6817 7.14834 20.2988C6.26607 19.4228 5.27117 17.9649 5.46514 17.8397C5.50268 17.8147 6.24104 17.2078 7.09829 16.4944C8.11822 15.6497 8.68137 15.1429 8.7064 15.0427C8.794 14.7048 8.40605 14.3544 8.09945 14.4984C8.02436 14.5296 7.29852 15.1116 6.49133 15.7811L5.02088 17.0013L4.93327 16.8073C4.79561 16.4819 4.5641 15.4995 4.48275 14.9051C4.37012 14.0604 4.44521 12.5085 4.63293 11.6951C5.4276 8.34747 7.83664 5.76323 11.0779 4.78709C12.0353 4.49926 12.6422 4.41166 13.7498 4.41166C14.9637 4.41166 15.6269 4.51803 16.6969 4.87469C17.9609 5.29393 19.0872 5.95094 20.0195 6.80819C20.5827 7.3338 20.7954 7.40888 21.0332 7.17111C21.3273 6.87702 21.2647 6.70181 20.6765 6.14492C18.6179 4.19891 15.5331 3.17898 12.686 3.50435Z" fill="#FFB60A"/>
<path d="M16.0025 7.79687C15.5958 7.94705 15.0514 8.50394 14.9075 8.9357C14.6572 9.69282 14.9137 10.5438 15.5332 11.0194C16.4843 11.7452 17.8046 11.4323 18.3678 10.3498C18.6055 9.8868 18.6055 9.23604 18.3615 8.74172C18.1487 8.30997 17.7295 7.92202 17.3353 7.79062C16.9724 7.66547 16.3717 7.67173 16.0025 7.79687ZM17.1288 8.72295C17.6982 9.01704 17.7796 9.81171 17.2852 10.2435C16.8785 10.6064 16.234 10.5313 15.9149 10.087C15.7334 9.83674 15.7147 9.33616 15.8711 9.07961C16.1339 8.66663 16.7033 8.50394 17.1288 8.72295Z" fill="#FFB60A"/>
<path d="M21.6401 8.10346C21.4774 8.30995 21.4774 8.41633 21.6339 8.69165C21.9592 9.26106 22.3847 10.1433 22.5412 10.5688C22.8916 11.5512 23.0167 12.2583 23.0543 13.5222C23.073 14.173 23.073 14.6986 23.048 14.6986C23.023 14.6986 22.4348 14.2418 21.7402 13.6849C21.0457 13.1218 20.3762 12.6149 20.2573 12.5586C19.9819 12.4147 19.6065 12.421 19.2874 12.5649C19.1497 12.6337 18.5052 13.1218 17.8607 13.6662C17.0473 14.3357 16.6593 14.6235 16.6093 14.586C16.5655 14.5547 15.6832 13.8539 14.6508 13.0217C13.6121 12.1957 12.6985 11.5012 12.6234 11.4761C12.3356 11.3823 11.8788 11.4261 11.6473 11.5637C11.1968 11.8328 9.38215 13.3846 9.34461 13.541C9.25701 13.8789 9.64496 14.2293 9.95156 14.0917C10.0267 14.0541 10.5272 13.6599 11.0591 13.2156C11.591 12.7714 12.0728 12.3897 12.1291 12.3709C12.1854 12.3459 12.298 12.3772 12.3856 12.4335C12.7486 12.6775 21.1333 19.4103 21.1333 19.4604C21.1333 19.4854 20.8329 19.8171 20.4638 20.1925C19.7191 20.9496 19.1247 21.4127 18.3175 21.8694C18.0234 22.0321 17.7356 22.2073 17.6793 22.2574C17.5228 22.3888 17.5354 22.7392 17.6918 22.8956C17.867 23.0708 18.0735 23.0521 18.524 22.8268C20.7641 21.7005 22.6788 19.4416 23.5048 16.9637C23.899 15.7811 23.9741 15.2493 23.9741 13.7287C23.9741 12.2145 23.899 11.6826 23.5048 10.4937C23.2733 9.78041 22.6475 8.49141 22.3847 8.17229C22.1344 7.8782 21.8404 7.84692 21.6401 8.10346ZM21.3585 14.5735C22.5975 15.5621 22.8478 15.7874 22.8353 15.9063C22.7602 16.4194 22.0468 18.1339 21.7465 18.5343C21.6714 18.6344 21.4774 18.4905 19.5502 16.945C18.3863 16.0126 17.4478 15.2367 17.4665 15.218C17.7419 14.9364 19.6879 13.3846 19.7629 13.3846C19.8193 13.3846 20.5326 13.9227 21.3585 14.5735Z" fill="#FFB60A"/>
</svg>
